<mxfile host="Electron" agent="Mozilla/5.0 (Windows NT 10.0; Win64; x64) AppleWebKit/537.36 (KHTML, like Gecko) draw.io/26.0.15 Chrome/132.0.6834.196 Electron/34.2.0 Safari/537.36" version="26.0.15">
  <diagram id="UA6J54rJro5fECUJnwiN" name="ページ1">
    <mxGraphModel dx="989" dy="600" grid="0" gridSize="10" guides="1" tooltips="1" connect="0" arrows="1" fold="1" page="1" pageScale="1" pageWidth="1000" pageHeight="700" background="#ffffff" math="1" shadow="0">
      <root>
        <mxCell id="0" />
        <mxCell id="1" parent="0" />
        <mxCell id="w73oTvz4Iid6BpMzDyzB-54" value="" style="rounded=1;whiteSpace=wrap;html=1;fillColor=#dae8fc;strokeColor=none;" vertex="1" parent="1">
          <mxGeometry x="661" y="556" width="36" height="60" as="geometry" />
        </mxCell>
        <mxCell id="w73oTvz4Iid6BpMzDyzB-52" value="" style="rounded=1;whiteSpace=wrap;html=1;fillColor=#DAE8FC;strokeColor=none;" vertex="1" parent="1">
          <mxGeometry x="266" y="430" width="79" height="72" as="geometry" />
        </mxCell>
        <mxCell id="w73oTvz4Iid6BpMzDyzB-53" value="" style="rounded=1;whiteSpace=wrap;html=1;fillColor=#dae8fc;strokeColor=none;" vertex="1" parent="1">
          <mxGeometry x="418" y="544" width="46" height="80" as="geometry" />
        </mxCell>
        <mxCell id="w73oTvz4Iid6BpMzDyzB-51" value="" style="rounded=1;whiteSpace=wrap;html=1;fillColor=#dae8fc;strokeColor=none;" vertex="1" parent="1">
          <mxGeometry x="196" y="435" width="46" height="70" as="geometry" />
        </mxCell>
        <mxCell id="w73oTvz4Iid6BpMzDyzB-50" value="" style="rounded=1;whiteSpace=wrap;html=1;fillColor=#FFB366;strokeColor=none;" vertex="1" parent="1">
          <mxGeometry x="541" y="554" width="93" height="65" as="geometry" />
        </mxCell>
        <mxCell id="w73oTvz4Iid6BpMzDyzB-49" value="" style="rounded=1;whiteSpace=wrap;html=1;fillColor=#FFB366;strokeColor=none;" vertex="1" parent="1">
          <mxGeometry x="293" y="543" width="108" height="82" as="geometry" />
        </mxCell>
        <mxCell id="w73oTvz4Iid6BpMzDyzB-48" value="" style="rounded=1;whiteSpace=wrap;html=1;fillColor=#FFB366;strokeColor=none;" vertex="1" parent="1">
          <mxGeometry x="263" y="333" width="141" height="76" as="geometry" />
        </mxCell>
        <mxCell id="w73oTvz4Iid6BpMzDyzB-47" value="" style="rounded=1;whiteSpace=wrap;html=1;fillColor=#FFB366;strokeColor=none;" vertex="1" parent="1">
          <mxGeometry x="130" y="242" width="100" height="68" as="geometry" />
        </mxCell>
        <mxCell id="w73oTvz4Iid6BpMzDyzB-1" value="`\frac{\partial L}{\partial \dot{Q}} = \frac{\partial L}{\partial \dot{q}} \frac{\partial \dot{q}}{\partial \dot{Q}}`" style="text;html=1;align=center;verticalAlign=middle;whiteSpace=wrap;rounded=0;fontSize=18;" vertex="1" parent="1">
          <mxGeometry x="120" y="90" width="170" height="80" as="geometry" />
        </mxCell>
        <mxCell id="w73oTvz4Iid6BpMzDyzB-2" value="`L(q(Q),\dot{q}(Q,\dot{Q}))`" style="text;html=1;align=center;verticalAlign=middle;whiteSpace=wrap;rounded=0;fontSize=18;" vertex="1" parent="1">
          <mxGeometry x="80" y="10" width="190" height="60" as="geometry" />
        </mxCell>
        <mxCell id="w73oTvz4Iid6BpMzDyzB-8" value="`q=q(Q)`" style="text;html=1;align=center;verticalAlign=middle;whiteSpace=wrap;rounded=0;fontSize=18;" vertex="1" parent="1">
          <mxGeometry x="610" y="20" width="100" height="50" as="geometry" />
        </mxCell>
        <mxCell id="w73oTvz4Iid6BpMzDyzB-10" value="`\frac{d}{dt} ( \frac{\partial L}{\partial \dot{Q}} ) - \frac{\partial L}{\partial Q} = \frac{dq}{dQ} ( \frac{d}{dt} ( \frac{\partial L}{\partial \dot{q}} ) - \frac{\partial L}{\partial q})`" style="text;html=1;align=center;verticalAlign=middle;whiteSpace=wrap;rounded=0;fontSize=18;" vertex="1" parent="1">
          <mxGeometry x="290" y="540" width="430" height="90" as="geometry" />
        </mxCell>
        <mxCell id="w73oTvz4Iid6BpMzDyzB-12" value="`\frac{d}{dt} ( \frac{\partial L}{\partial \dot{Q}} ) = \frac{d}{dt} ( \frac{\partial L}{\partial \dot{q}} ) \frac{\partial \dot{q}}{\partial \dot{Q}} + \frac{\partial L}{\partial \dot{q}} \frac{d}{dt} ( \frac{\partial \dot{q}}{\partial \dot{Q}} )`" style="text;html=1;align=center;verticalAlign=middle;whiteSpace=wrap;rounded=0;fontSize=18;" vertex="1" parent="1">
          <mxGeometry x="120" y="240" width="450" height="70" as="geometry" />
        </mxCell>
        <mxCell id="w73oTvz4Iid6BpMzDyzB-13" value="`= \frac{d}{dt} ( \frac{\partial L}{\partial \dot{q}} ) \frac{dq}{dQ} + \frac{\partial L}{\partial \dot{q}} \frac{\partial \dot{q}}{\partial Q}`" style="text;html=1;align=center;verticalAlign=middle;whiteSpace=wrap;rounded=0;fontSize=18;" vertex="1" parent="1">
          <mxGeometry x="230" y="330" width="280" height="80" as="geometry" />
        </mxCell>
        <mxCell id="w73oTvz4Iid6BpMzDyzB-14" value="`\frac{\partial L}{\partial Q} = \frac{\partial L}{\partial q} \frac{dq}{dQ} + \frac{\partial L}{\partial \dot{q}} \frac{\partial \dot{q}}{\partial Q}`" style="text;html=1;align=center;verticalAlign=middle;whiteSpace=wrap;rounded=0;fontSize=18;" vertex="1" parent="1">
          <mxGeometry x="190" y="430" width="260" height="80" as="geometry" />
        </mxCell>
        <mxCell id="w73oTvz4Iid6BpMzDyzB-15" value="`\frac{\partial \dot{q}}{\partial \dot{Q}} = \frac{dq}{dQ}`" style="text;html=1;align=center;verticalAlign=middle;whiteSpace=wrap;rounded=0;fontSize=18;" vertex="1" parent="1">
          <mxGeometry x="620" y="180" width="100" height="50" as="geometry" />
        </mxCell>
        <mxCell id="w73oTvz4Iid6BpMzDyzB-16" value="`\frac{\partial \dot{q}}{\partial Q} = \frac{d^2 q}{dQ^2} \dot{Q}`" style="text;html=1;align=center;verticalAlign=middle;whiteSpace=wrap;rounded=0;fontSize=18;" vertex="1" parent="1">
          <mxGeometry x="870" y="90" width="160" height="50" as="geometry" />
        </mxCell>
        <mxCell id="w73oTvz4Iid6BpMzDyzB-17" value="`\dot{q} = \frac{dq}{dQ} \dot{Q}`" style="text;html=1;align=center;verticalAlign=middle;whiteSpace=wrap;rounded=0;fontSize=18;" vertex="1" parent="1">
          <mxGeometry x="640" y="90" width="100" height="50" as="geometry" />
        </mxCell>
        <mxCell id="w73oTvz4Iid6BpMzDyzB-18" value="`\frac{d}{dt} ( \frac{\partial \dot{q}}{\partial \dot{Q}} ) = \frac{d^2 q}{dQ^2} \dot{Q}`" style="text;html=1;align=center;verticalAlign=middle;whiteSpace=wrap;rounded=0;fontSize=18;" vertex="1" parent="1">
          <mxGeometry x="870" y="180" width="100" height="50" as="geometry" />
        </mxCell>
        <mxCell id="w73oTvz4Iid6BpMzDyzB-19" value="" style="endArrow=classic;html=1;rounded=0;entryX=0;entryY=0.5;entryDx=0;entryDy=0;" edge="1" parent="1" target="w73oTvz4Iid6BpMzDyzB-1">
          <mxGeometry width="50" height="50" relative="1" as="geometry">
            <mxPoint x="80" y="40" as="sourcePoint" />
            <mxPoint x="480" y="220" as="targetPoint" />
            <Array as="points">
              <mxPoint x="60" y="40" />
              <mxPoint x="60" y="130" />
            </Array>
          </mxGeometry>
        </mxCell>
        <mxCell id="w73oTvz4Iid6BpMzDyzB-21" value="`\partial_\dot{Q}`" style="text;html=1;align=center;verticalAlign=middle;whiteSpace=wrap;rounded=0;fontSize=18;" vertex="1" parent="1">
          <mxGeometry x="49" y="70" width="60" height="40" as="geometry" />
        </mxCell>
        <mxCell id="w73oTvz4Iid6BpMzDyzB-22" value="" style="endArrow=classic;html=1;rounded=0;exitX=0.2;exitY=1.113;exitDx=0;exitDy=0;exitPerimeter=0;" edge="1" parent="1" source="w73oTvz4Iid6BpMzDyzB-1">
          <mxGeometry width="50" height="50" relative="1" as="geometry">
            <mxPoint x="430" y="270" as="sourcePoint" />
            <mxPoint x="154" y="230" as="targetPoint" />
          </mxGeometry>
        </mxCell>
        <mxCell id="w73oTvz4Iid6BpMzDyzB-23" value="`d_t`" style="text;html=1;align=center;verticalAlign=middle;whiteSpace=wrap;rounded=0;fontSize=18;" vertex="1" parent="1">
          <mxGeometry x="140" y="180" width="60" height="40" as="geometry" />
        </mxCell>
        <mxCell id="w73oTvz4Iid6BpMzDyzB-24" value="" style="endArrow=classic;html=1;rounded=0;entryX=-0.005;entryY=0.504;entryDx=0;entryDy=0;entryPerimeter=0;" edge="1" parent="1" target="w73oTvz4Iid6BpMzDyzB-14">
          <mxGeometry width="50" height="50" relative="1" as="geometry">
            <mxPoint x="80" y="40" as="sourcePoint" />
            <mxPoint x="90" y="130" as="targetPoint" />
            <Array as="points">
              <mxPoint x="30" y="40" />
              <mxPoint x="30" y="470" />
            </Array>
          </mxGeometry>
        </mxCell>
        <mxCell id="w73oTvz4Iid6BpMzDyzB-25" value="`\partial_Q`" style="text;html=1;align=center;verticalAlign=middle;whiteSpace=wrap;rounded=0;fontSize=18;" vertex="1" parent="1">
          <mxGeometry x="30" y="310" width="60" height="40" as="geometry" />
        </mxCell>
        <mxCell id="w73oTvz4Iid6BpMzDyzB-26" value="" style="endArrow=classic;html=1;rounded=0;" edge="1" parent="1">
          <mxGeometry width="50" height="50" relative="1" as="geometry">
            <mxPoint x="610" y="50" as="sourcePoint" />
            <mxPoint x="610" y="110" as="targetPoint" />
            <Array as="points">
              <mxPoint x="580" y="50" />
              <mxPoint x="580" y="110" />
            </Array>
          </mxGeometry>
        </mxCell>
        <mxCell id="w73oTvz4Iid6BpMzDyzB-27" value="" style="endArrow=classic;html=1;rounded=0;" edge="1" parent="1">
          <mxGeometry width="50" height="50" relative="1" as="geometry">
            <mxPoint x="610" y="120" as="sourcePoint" />
            <mxPoint x="610" y="200" as="targetPoint" />
            <Array as="points">
              <mxPoint x="580" y="120" />
              <mxPoint x="580" y="200" />
            </Array>
          </mxGeometry>
        </mxCell>
        <mxCell id="w73oTvz4Iid6BpMzDyzB-28" value="`\partial_\dot{Q}`" style="text;html=1;align=center;verticalAlign=middle;whiteSpace=wrap;rounded=0;fontSize=18;" vertex="1" parent="1">
          <mxGeometry x="530" y="140" width="60" height="40" as="geometry" />
        </mxCell>
        <mxCell id="w73oTvz4Iid6BpMzDyzB-29" value="`d_t`" style="text;html=1;align=center;verticalAlign=middle;whiteSpace=wrap;rounded=0;fontSize=18;" vertex="1" parent="1">
          <mxGeometry x="530" y="60" width="60" height="40" as="geometry" />
        </mxCell>
        <mxCell id="w73oTvz4Iid6BpMzDyzB-30" value="" style="endArrow=classic;html=1;rounded=0;" edge="1" parent="1">
          <mxGeometry width="50" height="50" relative="1" as="geometry">
            <mxPoint x="750" y="116" as="sourcePoint" />
            <mxPoint x="810" y="116" as="targetPoint" />
          </mxGeometry>
        </mxCell>
        <mxCell id="w73oTvz4Iid6BpMzDyzB-31" value="" style="endArrow=classic;html=1;rounded=0;" edge="1" parent="1">
          <mxGeometry width="50" height="50" relative="1" as="geometry">
            <mxPoint x="750" y="204.79999999999998" as="sourcePoint" />
            <mxPoint x="810" y="204.79999999999998" as="targetPoint" />
          </mxGeometry>
        </mxCell>
        <mxCell id="w73oTvz4Iid6BpMzDyzB-32" value="`d_t`" style="text;html=1;align=center;verticalAlign=middle;whiteSpace=wrap;rounded=0;fontSize=18;" vertex="1" parent="1">
          <mxGeometry x="749" y="175" width="60" height="30" as="geometry" />
        </mxCell>
        <mxCell id="w73oTvz4Iid6BpMzDyzB-33" value="`\partial_Q`" style="text;html=1;align=center;verticalAlign=middle;whiteSpace=wrap;rounded=0;fontSize=18;" vertex="1" parent="1">
          <mxGeometry x="747" y="88" width="60" height="30" as="geometry" />
        </mxCell>
        <mxCell id="w73oTvz4Iid6BpMzDyzB-35" value="" style="rounded=1;whiteSpace=wrap;html=1;arcSize=10;fillColor=none;strokeColor=#0000FF;" vertex="1" parent="1">
          <mxGeometry x="820" y="80" width="100" height="170" as="geometry" />
        </mxCell>
        <mxCell id="w73oTvz4Iid6BpMzDyzB-36" value="" style="rounded=1;whiteSpace=wrap;html=1;arcSize=10;fillColor=none;strokeColor=#0000FF;" vertex="1" parent="1">
          <mxGeometry x="460" y="240" width="90" height="80" as="geometry" />
        </mxCell>
        <mxCell id="w73oTvz4Iid6BpMzDyzB-37" value="" style="rounded=1;whiteSpace=wrap;html=1;arcSize=10;fillColor=none;strokeColor=#0000FF;" vertex="1" parent="1">
          <mxGeometry x="460" y="340" width="40" height="60" as="geometry" />
        </mxCell>
        <mxCell id="w73oTvz4Iid6BpMzDyzB-38" value="" style="rounded=1;whiteSpace=wrap;html=1;arcSize=10;fillColor=none;strokeColor=#FF0000;" vertex="1" parent="1">
          <mxGeometry x="360" y="245" width="40" height="70" as="geometry" />
        </mxCell>
        <mxCell id="w73oTvz4Iid6BpMzDyzB-39" value="" style="rounded=1;whiteSpace=wrap;html=1;arcSize=10;fillColor=none;strokeColor=#FF0000;" vertex="1" parent="1">
          <mxGeometry x="360" y="335" width="40" height="70" as="geometry" />
        </mxCell>
        <mxCell id="w73oTvz4Iid6BpMzDyzB-40" value="" style="endArrow=classic;html=1;rounded=0;exitX=0.5;exitY=1;exitDx=0;exitDy=0;entryX=0.5;entryY=0;entryDx=0;entryDy=0;strokeColor=#FF0000;" edge="1" parent="1" source="w73oTvz4Iid6BpMzDyzB-38" target="w73oTvz4Iid6BpMzDyzB-39">
          <mxGeometry width="50" height="50" relative="1" as="geometry">
            <mxPoint x="430" y="290" as="sourcePoint" />
            <mxPoint x="480" y="240" as="targetPoint" />
          </mxGeometry>
        </mxCell>
        <mxCell id="w73oTvz4Iid6BpMzDyzB-41" value="" style="rounded=1;whiteSpace=wrap;html=1;arcSize=10;fillColor=none;strokeColor=#FF0000;" vertex="1" parent="1">
          <mxGeometry x="610" y="172" width="120" height="70" as="geometry" />
        </mxCell>
        <mxCell id="w73oTvz4Iid6BpMzDyzB-42" value="" style="endArrow=classic;html=1;rounded=0;exitX=0.5;exitY=1;exitDx=0;exitDy=0;strokeColor=#FF0000;" edge="1" parent="1">
          <mxGeometry width="50" height="50" relative="1" as="geometry">
            <mxPoint x="670" y="242" as="sourcePoint" />
            <mxPoint x="380" y="322" as="targetPoint" />
            <Array as="points">
              <mxPoint x="670" y="322" />
            </Array>
          </mxGeometry>
        </mxCell>
        <mxCell id="w73oTvz4Iid6BpMzDyzB-43" value="" style="endArrow=classic;html=1;rounded=0;entryX=1;entryY=0.5;entryDx=0;entryDy=0;strokeColor=#0000FF;" edge="1" parent="1" target="w73oTvz4Iid6BpMzDyzB-37">
          <mxGeometry width="50" height="50" relative="1" as="geometry">
            <mxPoint x="520" y="320" as="sourcePoint" />
            <mxPoint x="500" y="240" as="targetPoint" />
            <Array as="points">
              <mxPoint x="520" y="370" />
            </Array>
          </mxGeometry>
        </mxCell>
        <mxCell id="w73oTvz4Iid6BpMzDyzB-44" value="" style="endArrow=classic;html=1;rounded=0;strokeColor=#0000FF;" edge="1" parent="1">
          <mxGeometry width="50" height="50" relative="1" as="geometry">
            <mxPoint x="870" y="250" as="sourcePoint" />
            <mxPoint x="520" y="350" as="targetPoint" />
            <Array as="points">
              <mxPoint x="870" y="350" />
            </Array>
          </mxGeometry>
        </mxCell>
        <mxCell id="w73oTvz4Iid6BpMzDyzB-45" value="" style="endArrow=none;html=1;rounded=0;entryX=1;entryY=1;entryDx=0;entryDy=0;strokeColor=#999999;strokeWidth=2;" edge="1" parent="1" target="w73oTvz4Iid6BpMzDyzB-37">
          <mxGeometry width="50" height="50" relative="1" as="geometry">
            <mxPoint x="420" y="335.84000000000003" as="sourcePoint" />
            <mxPoint x="485.81999999999994" y="410.0000000000001" as="targetPoint" />
          </mxGeometry>
        </mxCell>
        <mxCell id="w73oTvz4Iid6BpMzDyzB-46" value="" style="endArrow=none;html=1;rounded=0;strokeColor=#999999;strokeWidth=2;" edge="1" parent="1">
          <mxGeometry width="50" height="50" relative="1" as="geometry">
            <mxPoint x="363" y="437.84000000000003" as="sourcePoint" />
            <mxPoint x="440" y="500" as="targetPoint" />
          </mxGeometry>
        </mxCell>
        <mxCell id="w73oTvz4Iid6BpMzDyzB-55" value="" style="endArrow=classic;html=1;rounded=0;exitX=0.124;exitY=1.06;exitDx=0;exitDy=0;exitPerimeter=0;entryX=0;entryY=0.5;entryDx=0;entryDy=0;strokeColor=#FFB366;strokeWidth=2;" edge="1" parent="1" source="w73oTvz4Iid6BpMzDyzB-12" target="w73oTvz4Iid6BpMzDyzB-10">
          <mxGeometry width="50" height="50" relative="1" as="geometry">
            <mxPoint x="356" y="521" as="sourcePoint" />
            <mxPoint x="176" y="590" as="targetPoint" />
            <Array as="points">
              <mxPoint x="176" y="585" />
            </Array>
          </mxGeometry>
        </mxCell>
        <mxCell id="w73oTvz4Iid6BpMzDyzB-56" value="" style="endArrow=classic;html=1;rounded=0;exitX=0.124;exitY=1.06;exitDx=0;exitDy=0;exitPerimeter=0;strokeColor=#FFB366;strokeWidth=2;entryX=0.698;entryY=0.111;entryDx=0;entryDy=0;entryPerimeter=0;" edge="1" parent="1" target="w73oTvz4Iid6BpMzDyzB-10">
          <mxGeometry width="50" height="50" relative="1" as="geometry">
            <mxPoint x="326" y="410" as="sourcePoint" />
            <mxPoint x="590" y="530" as="targetPoint" />
            <Array as="points">
              <mxPoint x="326" y="420" />
              <mxPoint x="590" y="420" />
            </Array>
          </mxGeometry>
        </mxCell>
        <mxCell id="w73oTvz4Iid6BpMzDyzB-58" value="" style="endArrow=classic;html=1;rounded=0;strokeColor=#0000FF;" edge="1" parent="1">
          <mxGeometry width="50" height="50" relative="1" as="geometry">
            <mxPoint x="220" y="510" as="sourcePoint" />
            <mxPoint x="440" y="540" as="targetPoint" />
            <Array as="points">
              <mxPoint x="220" y="520" />
              <mxPoint x="440" y="520" />
            </Array>
          </mxGeometry>
        </mxCell>
        <mxCell id="w73oTvz4Iid6BpMzDyzB-59" value="" style="endArrow=classic;html=1;rounded=0;strokeColor=#0000FF;" edge="1" parent="1">
          <mxGeometry width="50" height="50" relative="1" as="geometry">
            <mxPoint x="311" y="500" as="sourcePoint" />
            <mxPoint x="680" y="554" as="targetPoint" />
            <Array as="points">
              <mxPoint x="311" y="510" />
              <mxPoint x="680" y="510" />
            </Array>
          </mxGeometry>
        </mxCell>
      </root>
    </mxGraphModel>
  </diagram>
</mxfile>
